<mxfile host="app.diagrams.net" agent="Mozilla/5.0 (Windows NT 10.0; Win64; x64) AppleWebKit/537.36 (KHTML, like Gecko) Chrome/135.0.0.0 Safari/537.36" version="27.0.1">
  <diagram name="Page-1" id="2YBvvXClWsGukQMizWep">
    <mxGraphModel dx="2038" dy="619" grid="1" gridSize="10" guides="1" tooltips="1" connect="1" arrows="1" fold="1" page="1" pageScale="1" pageWidth="850" pageHeight="1100" math="0" shadow="0">
      <root>
        <mxCell id="0" />
        <mxCell id="1" parent="0" />
        <mxCell id="aM9ryv3xv72pqoxQDRHE-1" value="Linnovate Partners" style="shape=umlLifeline;perimeter=lifelinePerimeter;whiteSpace=wrap;html=1;container=0;dropTarget=0;collapsible=0;recursiveResize=0;outlineConnect=0;portConstraint=eastwest;newEdgeStyle={&quot;edgeStyle&quot;:&quot;elbowEdgeStyle&quot;,&quot;elbow&quot;:&quot;vertical&quot;,&quot;curved&quot;:0,&quot;rounded&quot;:0};" parent="1" vertex="1">
          <mxGeometry x="30" y="40" width="110" height="570" as="geometry" />
        </mxCell>
        <mxCell id="aM9ryv3xv72pqoxQDRHE-2" value="" style="html=1;points=[];perimeter=orthogonalPerimeter;outlineConnect=0;targetShapes=umlLifeline;portConstraint=eastwest;newEdgeStyle={&quot;edgeStyle&quot;:&quot;elbowEdgeStyle&quot;,&quot;elbow&quot;:&quot;vertical&quot;,&quot;curved&quot;:0,&quot;rounded&quot;:0};" parent="aM9ryv3xv72pqoxQDRHE-1" vertex="1">
          <mxGeometry x="45" y="70" width="10" height="500" as="geometry" />
        </mxCell>
        <mxCell id="aM9ryv3xv72pqoxQDRHE-3" value="start" style="html=1;verticalAlign=bottom;startArrow=oval;endArrow=block;startSize=8;edgeStyle=elbowEdgeStyle;elbow=vertical;curved=0;rounded=0;" parent="aM9ryv3xv72pqoxQDRHE-1" target="aM9ryv3xv72pqoxQDRHE-2" edge="1">
          <mxGeometry relative="1" as="geometry">
            <mxPoint x="-15" y="70" as="sourcePoint" />
          </mxGeometry>
        </mxCell>
        <mxCell id="aM9ryv3xv72pqoxQDRHE-5" value="WC1 API" style="shape=umlLifeline;perimeter=lifelinePerimeter;whiteSpace=wrap;html=1;container=0;dropTarget=0;collapsible=0;recursiveResize=0;outlineConnect=0;portConstraint=eastwest;newEdgeStyle={&quot;edgeStyle&quot;:&quot;elbowEdgeStyle&quot;,&quot;elbow&quot;:&quot;vertical&quot;,&quot;curved&quot;:0,&quot;rounded&quot;:0};" parent="1" vertex="1">
          <mxGeometry x="310" y="40" width="100" height="570" as="geometry" />
        </mxCell>
        <mxCell id="aM9ryv3xv72pqoxQDRHE-6" value="" style="html=1;points=[];perimeter=orthogonalPerimeter;outlineConnect=0;targetShapes=umlLifeline;portConstraint=eastwest;newEdgeStyle={&quot;edgeStyle&quot;:&quot;elbowEdgeStyle&quot;,&quot;elbow&quot;:&quot;vertical&quot;,&quot;curved&quot;:0,&quot;rounded&quot;:0};" parent="aM9ryv3xv72pqoxQDRHE-5" vertex="1">
          <mxGeometry x="45" y="80" width="10" height="490" as="geometry" />
        </mxCell>
        <mxCell id="aM9ryv3xv72pqoxQDRHE-7" value="GET&amp;nbsp;&lt;span style=&quot;color: rgb(33, 33, 33); font-family: Inter, system-ui, -apple-system, BlinkMacSystemFont, &amp;quot;Segoe UI&amp;quot;, Roboto, Oxygen, Ubuntu, Cantarell, &amp;quot;Fira Sans&amp;quot;, &amp;quot;Droid Sans&amp;quot;, Helvetica, Arial, sans-serif; font-size: 12px; text-align: left; white-space: pre-wrap;&quot;&gt;/screening/v3/&lt;/span&gt;&lt;span style=&quot;color: rgb(33, 33, 33); font-family: Inter, system-ui, -apple-system, BlinkMacSystemFont, &amp;quot;Segoe UI&amp;quot;, Roboto, Oxygen, Ubuntu, Cantarell, &amp;quot;Fira Sans&amp;quot;, &amp;quot;Droid Sans&amp;quot;, Helvetica, Arial, sans-serif; font-size: 12px; text-align: left; white-space: pre-wrap;&quot;&gt;groups&lt;/span&gt;" style="html=1;verticalAlign=bottom;endArrow=block;edgeStyle=elbowEdgeStyle;elbow=vertical;curved=0;rounded=0;" parent="1" source="aM9ryv3xv72pqoxQDRHE-2" target="aM9ryv3xv72pqoxQDRHE-6" edge="1">
          <mxGeometry relative="1" as="geometry">
            <mxPoint x="195" y="130" as="sourcePoint" />
            <Array as="points">
              <mxPoint x="180" y="120" />
            </Array>
          </mxGeometry>
        </mxCell>
        <mxCell id="enYnz5ABhe8iJ7B-dG3G-5" value="[SEQ-pre-groups]: Get my top-level,child and zfs groups" style="whiteSpace=wrap;html=1;shape=mxgraph.basic.document" vertex="1" parent="1">
          <mxGeometry x="370" y="120" width="320" height="30" as="geometry" />
        </mxCell>
        <mxCell id="enYnz5ABhe8iJ7B-dG3G-9" value="200 OK" style="html=1;verticalAlign=bottom;endArrow=open;dashed=1;endSize=8;curved=0;rounded=0;" edge="1" parent="1">
          <mxGeometry relative="1" as="geometry">
            <mxPoint x="355" y="160" as="sourcePoint" />
            <mxPoint x="84.92857142857133" y="160" as="targetPoint" />
            <Array as="points">
              <mxPoint x="240" y="160" />
            </Array>
          </mxGeometry>
        </mxCell>
        <mxCell id="enYnz5ABhe8iJ7B-dG3G-34" value="Search CaseSystemId in application database by name" style="whiteSpace=wrap;html=1;shape=mxgraph.basic.document" vertex="1" parent="1">
          <mxGeometry x="-250" y="180" width="320" height="30" as="geometry" />
        </mxCell>
        <mxCell id="enYnz5ABhe8iJ7B-dG3G-35" value="If exists" style="text;html=1;align=center;verticalAlign=middle;resizable=0;points=[];autosize=1;strokeColor=none;fillColor=none;" vertex="1" parent="1">
          <mxGeometry x="10" y="210" width="60" height="30" as="geometry" />
        </mxCell>
        <mxCell id="enYnz5ABhe8iJ7B-dG3G-36" value="POST&amp;nbsp;&lt;span style=&quot;color: rgb(33, 33, 33); font-family: Inter, system-ui, -apple-system, BlinkMacSystemFont, &amp;quot;Segoe UI&amp;quot;, Roboto, Oxygen, Ubuntu, Cantarell, &amp;quot;Fira Sans&amp;quot;, &amp;quot;Droid Sans&amp;quot;, Helvetica, Arial, sans-serif; font-size: 12px; text-align: left; white-space: pre-wrap;&quot;&gt;/screening/v3/&lt;/span&gt;&lt;span style=&quot;color: rgb(33, 33, 33); font-family: Inter, system-ui, -apple-system, BlinkMacSystemFont, &amp;quot;Segoe UI&amp;quot;, Roboto, Oxygen, Ubuntu, Cantarell, &amp;quot;Fira Sans&amp;quot;, &amp;quot;Droid Sans&amp;quot;, Helvetica, Arial, sans-serif; font-size: 12px; text-align: left; white-space: pre-wrap;&quot; data-offset-key=&quot;82i00-3-0&quot;&gt;cases/&lt;/span&gt;&lt;span style=&quot;padding: var(--spacing-zero) 2px 1px; margin: var(--spacing-zero) 1px; border-radius: var(--border-radius-default); font-size: 12px; cursor: text; background: var(--background-color-secondary); color: var(--content-color-info); border: 1px solid var(--border-color-default); font-family: Inter, system-ui, -apple-system, BlinkMacSystemFont, &amp;quot;Segoe UI&amp;quot;, Roboto, Oxygen, Ubuntu, Cantarell, &amp;quot;Fira Sans&amp;quot;, &amp;quot;Droid Sans&amp;quot;, Helvetica, Arial, sans-serif; text-align: left; white-space: pre-wrap;&quot; aria-expanded=&quot;false&quot; data-testid=&quot;resolvedVariable&quot; class=&quot;inlineVariable resolvedVariable&quot; spellcheck=&quot;false&quot;&gt;{{case-system-id}}&lt;/span&gt;&lt;span style=&quot;color: rgb(33, 33, 33); font-family: Inter, system-ui, -apple-system, BlinkMacSystemFont, &amp;quot;Segoe UI&amp;quot;, Roboto, Oxygen, Ubuntu, Cantarell, &amp;quot;Fira Sans&amp;quot;, &amp;quot;Droid Sans&amp;quot;, Helvetica, Arial, sans-serif; font-size: 12px; text-align: left; white-space: pre-wrap;&quot; data-offset-key=&quot;82i00-5-0&quot;&gt;/results&lt;/span&gt;" style="html=1;verticalAlign=bottom;endArrow=block;edgeStyle=elbowEdgeStyle;elbow=vertical;curved=0;rounded=0;" edge="1" parent="1" source="aM9ryv3xv72pqoxQDRHE-2" target="aM9ryv3xv72pqoxQDRHE-6">
          <mxGeometry relative="1" as="geometry">
            <mxPoint x="90" y="240" as="sourcePoint" />
            <Array as="points">
              <mxPoint x="190" y="240" />
            </Array>
            <mxPoint x="350" y="240" as="targetPoint" />
          </mxGeometry>
        </mxCell>
        <mxCell id="enYnz5ABhe8iJ7B-dG3G-37" value="[SEQ-case-investigate-results]: Get screening results" style="whiteSpace=wrap;html=1;shape=mxgraph.basic.document" vertex="1" parent="1">
          <mxGeometry x="370" y="250" width="320" height="30" as="geometry" />
        </mxCell>
        <mxCell id="enYnz5ABhe8iJ7B-dG3G-38" value="POST&amp;nbsp;&lt;span style=&quot;color: rgb(33, 33, 33); font-family: Inter, system-ui, -apple-system, BlinkMacSystemFont, &amp;quot;Segoe UI&amp;quot;, Roboto, Oxygen, Ubuntu, Cantarell, &amp;quot;Fira Sans&amp;quot;, &amp;quot;Droid Sans&amp;quot;, Helvetica, Arial, sans-serif; font-size: 12px; text-align: left; white-space: pre-wrap;&quot;&gt;/screening/v3/&lt;/span&gt;&lt;span style=&quot;color: rgb(33, 33, 33); font-family: Inter, system-ui, -apple-system, BlinkMacSystemFont, &amp;quot;Segoe UI&amp;quot;, Roboto, Oxygen, Ubuntu, Cantarell, &amp;quot;Fira Sans&amp;quot;, &amp;quot;Droid Sans&amp;quot;, Helvetica, Arial, sans-serif; font-size: 12px; text-align: left; white-space: pre-wrap;&quot;&gt;cases?screen=&lt;b&gt;SYNC (ONGOING WatchList)&lt;/b&gt;&lt;/span&gt;" style="html=1;verticalAlign=bottom;endArrow=block;edgeStyle=elbowEdgeStyle;elbow=vertical;curved=0;rounded=0;" edge="1" parent="1">
          <mxGeometry relative="1" as="geometry">
            <mxPoint x="85" y="369.17" as="sourcePoint" />
            <Array as="points">
              <mxPoint x="185" y="369.17" />
            </Array>
            <mxPoint x="355" y="369.17" as="targetPoint" />
          </mxGeometry>
        </mxCell>
        <mxCell id="enYnz5ABhe8iJ7B-dG3G-39" value="200 OK" style="html=1;verticalAlign=bottom;endArrow=open;dashed=1;endSize=8;curved=0;rounded=0;" edge="1" parent="1">
          <mxGeometry relative="1" as="geometry">
            <mxPoint x="355" y="409.17" as="sourcePoint" />
            <mxPoint x="85" y="409.17" as="targetPoint" />
          </mxGeometry>
        </mxCell>
        <mxCell id="enYnz5ABhe8iJ7B-dG3G-40" value="[SEQ-screen-sync-simple]: Creating and Screening a Case" style="whiteSpace=wrap;html=1;shape=mxgraph.basic.document" vertex="1" parent="1">
          <mxGeometry x="370" y="369.17" width="320" height="30" as="geometry" />
        </mxCell>
        <mxCell id="enYnz5ABhe8iJ7B-dG3G-41" value="Stored CaseId and CaseSystemId" style="whiteSpace=wrap;html=1;shape=mxgraph.basic.document" vertex="1" parent="1">
          <mxGeometry x="-250" y="420" width="320" height="30" as="geometry" />
        </mxCell>
        <mxCell id="enYnz5ABhe8iJ7B-dG3G-42" value="" style="edgeStyle=elbowEdgeStyle;rounded=0;orthogonalLoop=1;jettySize=auto;html=1;elbow=vertical;curved=0;" edge="1" parent="1">
          <mxGeometry relative="1" as="geometry">
            <mxPoint x="85" y="474.17" as="sourcePoint" />
            <mxPoint x="355" y="474.17" as="targetPoint" />
          </mxGeometry>
        </mxCell>
        <mxCell id="enYnz5ABhe8iJ7B-dG3G-43" value="GET /screening/v3/&lt;span style=&quot;color: rgb(33, 33, 33); font-family: Inter, system-ui, -apple-system, BlinkMacSystemFont, &amp;quot;Segoe UI&amp;quot;, Roboto, Oxygen, Ubuntu, Cantarell, &amp;quot;Fira Sans&amp;quot;, &amp;quot;Droid Sans&amp;quot;, Helvetica, Arial, sans-serif; text-align: left; white-space: pre-wrap; background-color: rgb(255, 255, 255);&quot; data-offset-key=&quot;cosfb-3-0&quot;&gt;&lt;span data-text=&quot;true&quot;&gt;references/records/&lt;/span&gt;&lt;/span&gt;&lt;span style=&quot;padding: var(--spacing-zero) 2px 1px; margin: var(--spacing-zero) 1px; border-radius: var(--border-radius-default); cursor: text; background: var(--background-color-secondary); color: var(--content-color-info); border: 1px solid var(--border-color-default); font-family: Inter, system-ui, -apple-system, BlinkMacSystemFont, &amp;quot;Segoe UI&amp;quot;, Roboto, Oxygen, Ubuntu, Cantarell, &amp;quot;Fira Sans&amp;quot;, &amp;quot;Droid Sans&amp;quot;, Helvetica, Arial, sans-serif; text-align: left; white-space: pre-wrap;&quot; aria-expanded=&quot;false&quot; data-testid=&quot;resolvedVariable&quot; class=&quot;inlineVariable resolvedVariable&quot; spellcheck=&quot;false&quot;&gt;{{worldcheck-record-id-encoded}}&lt;/span&gt;" style="text;html=1;align=center;verticalAlign=middle;resizable=0;points=[];autosize=1;strokeColor=none;fillColor=none;" vertex="1" parent="1">
          <mxGeometry x="20" y="439.17" width="410" height="30" as="geometry" />
        </mxCell>
        <mxCell id="enYnz5ABhe8iJ7B-dG3G-44" value="[SEQ-world-check-record]: Retrieve a World-Check record" style="whiteSpace=wrap;html=1;shape=mxgraph.basic.document" vertex="1" parent="1">
          <mxGeometry x="370" y="489.17" width="320" height="30" as="geometry" />
        </mxCell>
        <mxCell id="enYnz5ABhe8iJ7B-dG3G-45" value="200 OK" style="html=1;verticalAlign=bottom;endArrow=open;dashed=1;endSize=8;curved=0;rounded=0;" edge="1" parent="1">
          <mxGeometry relative="1" as="geometry">
            <mxPoint x="355" y="519.17" as="sourcePoint" />
            <mxPoint x="85" y="519.17" as="targetPoint" />
          </mxGeometry>
        </mxCell>
        <mxCell id="enYnz5ABhe8iJ7B-dG3G-46" value="200 OK" style="html=1;verticalAlign=bottom;endArrow=open;dashed=1;endSize=8;curved=0;rounded=0;" edge="1" parent="1">
          <mxGeometry relative="1" as="geometry">
            <mxPoint x="355" y="290" as="sourcePoint" />
            <mxPoint x="84.66666666666652" y="290" as="targetPoint" />
          </mxGeometry>
        </mxCell>
        <mxCell id="enYnz5ABhe8iJ7B-dG3G-47" value="else" style="text;html=1;align=center;verticalAlign=middle;resizable=0;points=[];autosize=1;strokeColor=none;fillColor=none;" vertex="1" parent="1">
          <mxGeometry x="15" y="330" width="50" height="30" as="geometry" />
        </mxCell>
        <mxCell id="enYnz5ABhe8iJ7B-dG3G-48" value="Then" style="text;html=1;align=center;verticalAlign=middle;resizable=0;points=[];autosize=1;strokeColor=none;fillColor=none;" vertex="1" parent="1">
          <mxGeometry x="15" y="459.17" width="50" height="30" as="geometry" />
        </mxCell>
      </root>
    </mxGraphModel>
  </diagram>
</mxfile>
